<?xml version="1.0" encoding="UTF-8"?><svg id="Layer_1" xmlns="http://www.w3.org/2000/svg" viewBox="0 0 183.78 183.78"><defs><style>.cls-1{fill:#3a423c;}</style></defs><path class="cls-1" d="M91.89,5c47.91,0,86.89,38.98,86.89,86.89s-38.98,86.89-86.89,86.89S5,139.8,5,91.89,43.98,5,91.89,5m0-5C41.14,0,0,41.14,0,91.89s41.14,91.89,91.89,91.89,91.89-41.14,91.89-91.89S142.64,0,91.89,0h0Z"/><path class="cls-1" d="M82.57,40.55c-5.53,2.73-10.94,5.25-14.83,9.86-6.49,7.88-4.42,17.87,2.19,25.09,5.52,6.23,12.52,11.56,17.88,18.04,5.98,6.79,10.22,15.76,6.8,24.87-3.14,8.39-9.66,15.12-17.07,19.92-8.16,5.21-17.65,8.22-27.31,8.97-5.18,.35-6.52-4.56-5.53-8.56,1.19-5.54,3.78-10.64,6.23-15.51,11-22.54,30.58-42.15,47.08-60.76,5.77-6.34,12.09-12.43,19.32-17.43,3.1-1.93,5.8-4.4,9.76-4.61,9.6,.41,4.27,11.57,1.47,16.35-3.1,5.66-6.93,10.8-10.11,16.32-3.16,5.11-6.52,10.62-7.12,16.52-1.21,12.3,5.99,23.53,12.33,33.51,4.58,6.91,9.9,13.3,15.77,19.08,1.52,1.49,1.54,3.94,.04,5.45-1.56,1.59-4.18,1.51-5.64-.17-5.75-6.58-10.91-13.63-15.37-21.08-6.44-11.38-13.61-23.79-11.71-37.39,.89-6.72,4.61-12.57,8.14-18.12,4.27-7.15,9.57-13.88,12.55-21.62,.47-1.23,1.07-3.33,.67-4.18-1.88-.44-3.7,1.04-5.36,2.14-7.61,5.35-13.76,12.34-19.84,19.53-16.09,19.68-34.13,37.28-46.46,59.47-2.03,3.6-3.99,7.3-5.37,10.98-.56,1.47-1.17,3.48-1.08,4.82,.02,.21,.06,.18-.08,.04-.15-.15-.36-.17-.23-.14,.05,.01,.15,.02,.28,.02,8.85-.33,17.69-2.76,25.37-7.24,6.84-4.03,13.26-9.99,16.25-17.4,3.23-7.76-.77-15.82-6.33-21.47-8.65-9.51-22.75-15.29-26.52-28.6-2.77-9.51,1.95-19.97,10.42-24.81,3.9-2.44,8.09-3.87,12.18-5.11,.92-.28,1.89,.24,2.17,1.16,.25,.83-.15,1.71-.91,2.08h0Z"/></svg>